<?xml version="1.0" standalone="no"?>
<!DOCTYPE svg PUBLIC "-//W3C//DTD SVG 20010904//EN"
 "http://www.w3.org/TR/2001/REC-SVG-20010904/DTD/svg10.dtd">
<svg version="1.0" xmlns="http://www.w3.org/2000/svg"
 width="739.000000pt" height="114.000000pt" viewBox="0 0 739.000000 114.000000"
 preserveAspectRatio="xMidYMid meet">
<metadata>
Created by potrace 1.16, written by Peter Selinger 2001-2019
</metadata>
<g transform="translate(0.000000,114.000000) scale(0.100000,-0.100000)"
fill="#000000" stroke="none">
<path d="M602 1027 l-82 -82 42 -42 41 -41 28 20 c36 27 82 27 118 0 l28 -21
42 43 41 42 -83 82 c-45 45 -85 82 -87 82 -3 0 -42 -37 -88 -83z"/>
<path d="M6488 946 l-48 -21 0 -72 c0 -50 -4 -74 -14 -80 -7 -4 -22 -29 -34
-55 l-20 -47 31 -3 32 -3 5 -150 c4 -132 8 -154 27 -185 31 -50 88 -80 153
-80 107 0 180 76 180 188 l0 51 -50 -22 c-38 -17 -50 -27 -50 -45 0 -33 -43
-72 -80 -72 -19 0 -40 9 -55 25 -24 23 -25 29 -25 160 l0 135 95 0 94 0 21 46
c11 26 20 48 20 50 0 2 -52 4 -115 4 l-114 0 -3 98 -3 98 -47 -20z"/>
<path d="M1924 951 c-51 -13 -103 -50 -132 -94 -27 -40 -27 -43 -30 -240 -3
-197 -3 -199 22 -252 17 -34 41 -63 68 -81 36 -25 51 -29 121 -31 78 -2 81 -3
118 -39 l38 -37 48 18 c26 10 50 20 52 22 3 2 -16 25 -42 51 l-47 47 26 50
c25 49 25 53 22 250 l-3 200 -29 43 c-50 74 -150 114 -232 93z m131 -131 l30
-30 3 -162 c5 -219 -4 -257 -45 -208 -21 25 -21 25 -79 0 l-47 -21 23 -24 c38
-41 -5 -32 -46 9 l-34 34 0 180 0 180 27 32 c14 18 36 36 47 41 36 15 88 2
121 -31z"/>
<path d="M2853 948 c-28 -14 -45 -61 -33 -93 19 -50 86 -61 119 -19 12 15 21
33 21 40 0 26 -23 62 -47 73 -28 13 -31 13 -60 -1z"/>
<path d="M3903 940 l-43 -19 0 -341 0 -341 23 7 c71 22 74 26 79 123 4 78 7
94 28 116 23 25 60 32 95 19 32 -13 45 -59 45 -164 0 -55 2 -100 4 -100 2 0
24 9 50 20 l46 21 0 95 c0 57 -5 108 -14 127 -14 34 -78 97 -99 97 -6 0 19 31
57 69 l69 69 -41 21 c-23 12 -45 21 -50 21 -4 0 -46 -36 -93 -80 -46 -43 -87
-79 -91 -80 -5 0 -8 77 -8 170 0 94 -3 170 -7 169 -5 0 -27 -9 -50 -19z"/>
<path d="M540 705 l-134 -136 139 -139 c77 -77 144 -140 150 -140 13 0 275
262 275 275 0 17 -264 275 -281 275 -8 0 -75 -61 -149 -135z"/>
<path d="M2368 766 l-48 -20 0 -173 c0 -185 7 -222 53 -271 35 -38 72 -52 132
-52 64 0 102 16 138 60 40 47 47 90 47 292 l0 187 -50 -21 -50 -21 0 -158 c0
-87 -5 -170 -10 -185 -26 -67 -101 -73 -152 -11 -1 1 -4 90 -7 197 l-6 196
-47 -20z"/>
<path d="M2888 768 l-48 -21 0 -185 c0 -178 1 -187 24 -226 32 -55 89 -86 156
-86 107 0 180 76 180 188 l0 51 -50 -22 c-37 -16 -50 -27 -50 -43 0 -31 -47
-74 -80 -74 -15 0 -38 9 -51 19 -23 19 -24 24 -29 219 l-5 201 -47 -21z"/>
<path d="M3455 762 c-23 -11 -53 -37 -70 -62 -29 -41 -30 -49 -34 -163 -2 -72
1 -136 8 -158 14 -46 53 -94 92 -114 37 -20 123 -19 165 1 53 25 95 94 101
165 3 32 3 59 1 59 -3 0 -26 -9 -51 -20 -33 -15 -47 -27 -52 -47 -17 -70 -81
-93 -132 -49 -27 23 -28 28 -31 128 -3 115 6 145 51 166 55 27 117 -26 117
-100 0 -16 2 -28 5 -28 2 0 25 10 50 22 46 22 46 23 40 63 -19 118 -151 188
-260 137z"/>
<path d="M5010 769 c-32 -13 -77 -56 -98 -94 -15 -26 -17 -73 -20 -323 -2
-160 -1 -292 2 -292 3 0 26 10 51 22 l45 22 0 76 0 77 73 -4 c83 -5 115 9 163
73 28 36 29 43 32 163 4 134 -4 181 -40 226 -42 54 -143 80 -208 54z m128
-125 c20 -22 22 -36 22 -125 0 -100 -8 -132 -39 -156 -25 -20 -68 -15 -97 11
-26 21 -28 30 -32 113 -5 107 8 157 46 178 34 19 71 11 100 -21z"/>
<path d="M5515 763 c-86 -45 -104 -90 -105 -250 0 -132 7 -163 48 -206 39 -42
75 -57 132 -57 140 0 199 97 187 306 -6 98 -18 133 -64 176 -52 49 -138 63
-198 31z m115 -98 c39 -20 53 -76 48 -184 -4 -76 -7 -86 -32 -108 -30 -25 -56
-29 -89 -11 -41 21 -46 39 -47 151 0 107 0 109 29 138 33 33 50 35 91 14z"/>
<path d="M6045 765 c-44 -22 -78 -78 -78 -128 0 -81 41 -126 128 -142 54 -9
74 -22 85 -51 11 -29 -9 -77 -35 -88 -60 -23 -107 11 -115 82 l-5 51 -47 -21
c-42 -18 -48 -24 -48 -50 0 -53 48 -126 102 -154 39 -20 122 -18 167 6 86 43
115 168 58 244 -33 42 -69 63 -126 72 -48 8 -75 37 -61 64 21 40 73 31 84 -15
8 -30 12 -30 65 -7 l41 19 -26 50 c-38 77 -115 104 -189 68z"/>
<path d="M7075 766 c-49 -22 -80 -73 -79 -131 0 -82 40 -125 130 -140 78 -12
111 -79 62 -125 -49 -46 -122 -10 -134 65 -3 25 -9 45 -13 45 -3 0 -25 -8 -48
-17 -41 -17 -43 -19 -37 -53 18 -98 88 -160 182 -160 104 0 174 69 174 171 -1
89 -44 137 -148 164 -78 20 -95 50 -47 82 20 14 24 13 46 -9 13 -13 26 -31 29
-38 4 -12 12 -11 47 5 37 16 42 22 36 44 -22 88 -116 134 -200 97z"/>
<path d="M227 652 l-87 -87 84 -84 c92 -92 93 -92 150 -32 l30 31 -24 25 c-31
32 -32 84 -3 123 l22 29 -43 42 -42 41 -87 -88z"/>
<path d="M1023 698 l-42 -43 25 -30 c29 -37 30 -69 3 -114 l-21 -34 41 -41 41
-41 87 88 88 87 -85 85 c-46 47 -87 85 -90 85 -3 0 -24 -19 -47 -42z"/>
<path d="M559 234 l-44 -44 88 -88 87 -87 87 87 88 88 -44 44 -44 45 -29 -24
c-37 -32 -72 -32 -113 -1 l-32 25 -44 -45z"/>
</g>
</svg>
